<svg width="501.23" height="423.1" xmlns="http://www.w3.org/2000/svg"><g transform="matrix(1 0 0 1 250.62 211.55)"  ><g style=""   ><g transform="matrix(1 0 0 1 205.59 115.08)"  ><ellipse style="stroke: rgb(226,119,61); stroke-width: 1; stroke-dasharray: none; stroke-linecap: butt; stroke-dashoffset: 0; stroke-linejoin: miter; stroke-miterlimit: 10; fill: none; fill-rule: nonzero; opacity: 1;"  cx="0" cy="0" rx="19.68" ry="34.1" /></g><g transform="matrix(1 0 0 1 193.37 108.89)"  ><path style="stroke: none; stroke-width: 1; stroke-dasharray: none; stroke-linecap: butt; stroke-dashoffset: 0; stroke-linejoin: miter; stroke-miterlimit: 4; fill: rgb(226,119,61); fill-rule: nonzero; opacity: 1;"  transform=" translate(-443.98, -320.44)" d="M 439.33 341.63 C 436.53 335.17 438.64 331.21 438.64 326.63 C 438.64 317 441.87 306.1 447.64 299.26 C 449.1878022177236 304.15742352713403 450.0131528543466 309.25438480554465 450.09 314.39 C 450.06 324 445.07 334.78999999999996 439.33 341.63 Z" stroke-linecap="round" /></g><g transform="matrix(1 0 0 1 175.31 102.91)"  ><ellipse style="stroke: none; stroke-width: 1; stroke-dasharray: none; stroke-linecap: butt; stroke-dashoffset: 0; stroke-linejoin: miter; stroke-miterlimit: 4; fill: rgb(255,255,255); fill-rule: nonzero; opacity: 1;"  cx="0" cy="0" rx="19.68" ry="34.1" /></g><g transform="matrix(1 0 0 1 215.71 105.75)"  ><path style="stroke: none; stroke-width: 1; stroke-dasharray: none; stroke-linecap: butt; stroke-dashoffset: 0; stroke-linejoin: miter; stroke-miterlimit: 4; fill: rgb(226,119,61); fill-rule: nonzero; opacity: 1;"  transform=" translate(-466.32, -317.3)" d="M 474.25 327.7 C 474.25 331.51 475.79 334.55 473.69 339.7 C 464.64 332.49 457.85 320.38 457.85 307.90999999999997 C 457.96937221560984 303.5162987069018 458.61053595401887 299.15235703186664 459.76000000000005 294.90999999999997 C 468.80000000000007 302.05999999999995 474.25000000000006 315.22999999999996 474.25000000000006 327.7 Z" stroke-linecap="round" /></g><g transform="matrix(1 0 0 1 230.44 94.4)"  ><ellipse style="stroke: none; stroke-width: 1; stroke-dasharray: none; stroke-linecap: butt; stroke-dashoffset: 0; stroke-linejoin: miter; stroke-miterlimit: 4; fill: rgb(255,255,255); fill-rule: nonzero; opacity: 1;"  cx="0" cy="0" rx="19.68" ry="34.1" /></g><g transform="matrix(1 0 0 1 205.59 123.61)"  ><path style="stroke: rgb(226,119,61); stroke-width: 1; stroke-dasharray: none; stroke-linecap: round; stroke-dashoffset: 0; stroke-linejoin: round; stroke-miterlimit: 4; fill: none; fill-rule: nonzero; opacity: 1;"  transform=" translate(-456.21, -335.16)" d="M 456.21 360.73 L 456.21 309.59000000000003 M 456.21 329.62 L 464.18 320.51 M 456.21 340.5 L 467.7 327.37 M 456.21 351.72 L 468.07 338.15000000000003 M 456.21 329.65 L 446.54999999999995 318.59 M 456.21 340.52 L 444.34999999999997 326.96 M 456.21 351.74 L 444.34999999999997 338.18" stroke-linecap="round" /></g><g transform="matrix(1 0 0 1 230.44 94.4)"  ><ellipse style="stroke: rgb(30,100,221); stroke-width: 1; stroke-dasharray: none; stroke-linecap: butt; stroke-dashoffset: 0; stroke-linejoin: miter; stroke-miterlimit: 10; fill: none; fill-rule: nonzero; opacity: 1;"  cx="0" cy="0" rx="19.68" ry="34.1" /></g><g transform="matrix(1 0 0 1 230.44 113.34)"  ><path style="stroke: rgb(30,100,221); stroke-width: 1; stroke-dasharray: none; stroke-linecap: round; stroke-dashoffset: 0; stroke-linejoin: round; stroke-miterlimit: 4; fill: none; fill-rule: nonzero; opacity: 1;"  transform=" translate(-481.05, -324.89)" d="M 481.05 288.91 L 481.05 360.87 M 481.05 308.94 L 490.69 297.91 M 481.05 319.82 L 492.91 306.26 M 481.05 331.03 L 492.91 317.46999999999997 M 481.05 308.96 L 471.38 297.90999999999997 M 481.05 319.84 L 469.19 306.28 M 481.05 331.06 L 469.19 317.49" stroke-linecap="round" /></g><g transform="matrix(1 0 0 1 175.31 102.91)"  ><ellipse style="stroke: rgb(88,209,185); stroke-width: 1; stroke-dasharray: none; stroke-linecap: round; stroke-dashoffset: 0; stroke-linejoin: round; stroke-miterlimit: 4; fill: none; fill-rule: nonzero; opacity: 1;"  cx="0" cy="0" rx="19.68" ry="34.1" /></g><g transform="matrix(1 0 0 1 175.31 117.59)"  ><path style="stroke: rgb(88,209,185); stroke-width: 1; stroke-dasharray: none; stroke-linecap: round; stroke-dashoffset: 0; stroke-linejoin: round; stroke-miterlimit: 4; fill: none; fill-rule: nonzero; opacity: 1;"  transform=" translate(-425.93, -329.14)" d="M 425.93 297.42 L 425.93 360.87 M 425.93 317.45 L 435.58 306.42 M 425.93 328.33 L 437.79 314.77 M 425.93 339.54 L 437.79 325.98 M 425.93 317.47 L 416.27 306.42 M 425.93 328.35 L 414.07 314.79 M 425.93 339.56 L 414.07 326" stroke-linecap="round" /></g><g transform="matrix(1 0 0 1 8.47 149.32)"  ><path style="stroke: rgb(86,93,109); stroke-width: 1; stroke-dasharray: none; stroke-linecap: round; stroke-dashoffset: 0; stroke-linejoin: round; stroke-miterlimit: 4; fill: none; fill-rule: nonzero; opacity: 1;"  transform=" translate(-259.08, -360.87)" d="M 25.26 360.87 L 492.90999999999997 360.87" stroke-linecap="round" /></g><g transform="matrix(0.71 0.71 -0.71 0.71 -159.4 20.2)"  ><rect style="stroke: none; stroke-width: 1; stroke-dasharray: none; stroke-linecap: butt; stroke-dashoffset: 0; stroke-linejoin: miter; stroke-miterlimit: 4; fill: rgb(195,225,248); fill-rule: nonzero; opacity: 1;"  x="-48.53" y="-49.05" rx="13" ry="13" width="97.06" height="98.1" /></g><g transform="matrix(0.71 0.71 -0.71 0.71 -159.4 20.2)"  ><rect style="stroke: rgb(30,100,221); stroke-width: 1; stroke-dasharray: none; stroke-linecap: round; stroke-dashoffset: 0; stroke-linejoin: round; stroke-miterlimit: 4; fill: none; fill-rule: nonzero; opacity: 1;"  x="-57.16" y="-57.16" rx="13" ry="13" width="114.32" height="114.32" /></g><g transform="matrix(1 0 0 1 -218.42 117.63)"  ><path style="stroke: none; stroke-width: 1; stroke-dasharray: none; stroke-linecap: butt; stroke-dashoffset: 0; stroke-linejoin: miter; stroke-miterlimit: 4; fill: rgb(124,54,209); fill-rule: nonzero; opacity: 1;"  transform=" translate(-32.2, -329.18)" d="M 31.34 313.3 C 31.876467384637124 315.9078515299524 32.280319507985695 318.5412343838533 32.55000000000001 321.19000000000005 C 32.849999999999994 323.82 33.029999999999994 326.46 33.19 329.1 C 33.35 331.74000000000007 33.419999999999995 334.39000000000004 33.4 337.05 C 33.41864550018456 339.72086869015277 33.30182880584655 342.3909645607361 33.050000000000004 345.05 C 32.51353261536287 342.44214847004764 32.109680492014306 339.80876561614673 31.83999999999999 337.16 C 31.539999999999996 334.53000000000003 31.359999999999996 331.88000000000005 31.199999999999996 329.24 C 31.039999999999996 326.59999999999997 30.979999999999997 323.95 30.989999999999995 321.3 C 30.999999999999993 318.65000000000003 31.069999999999993 316 31.339999999999996 313.3 Z" stroke-linecap="round" /></g><g transform="matrix(1 0 0 1 -218.43 117.61)"  ><path style="stroke: none; stroke-width: 1; stroke-dasharray: none; stroke-linecap: butt; stroke-dashoffset: 0; stroke-linejoin: miter; stroke-miterlimit: 4; fill: rgb(124,54,209); fill-rule: nonzero; opacity: 1;"  transform=" translate(-32.18, -329.16)" d="M 48.06 328.3 C 45.452015875997496 328.8357280551769 42.81867056211452 329.2395744214378 40.17000000000001 329.51 C 37.53 329.81 34.89 329.99 32.25 330.15999999999997 C 29.61 330.3299999999999 26.96 330.38 24.31 330.35999999999996 C 21.639035667154353 330.38399713834235 18.968663342767815 330.26716834915044 16.309999999999988 330.00999999999993 C 18.917142497545335 329.471947845085 21.550780302730708 329.07139456672985 24.199999999999996 328.80999999999995 C 26.83 328.50999999999993 29.47 328.31999999999994 32.11 328.15999999999997 C 34.75 328 37.4 327.93999999999994 40.05 327.96 C 42.7240335976349 327.93769222238984 45.39747530185366 328.0511716455402 48.05999999999996 328.29999999999995 Z" stroke-linecap="round" /></g><g transform="matrix(1 0 0 1 -146.33 76.34)"  ><path style="stroke: none; stroke-width: 1; stroke-dasharray: none; stroke-linecap: butt; stroke-dashoffset: 0; stroke-linejoin: miter; stroke-miterlimit: 4; fill: rgb(30,100,221); fill-rule: nonzero; opacity: 1;"  transform=" translate(-104.29, -287.89)" d="M 103.71 277.21 C 104.19361854642734 278.94809293469086 104.54791983720568 280.71959938858254 104.77 282.51 C 105.02 284.28 105.19 286.06 105.28 287.84 C 105.37 289.61999999999995 105.4 291.4 105.35 293.19 C 105.32033813609353 294.99300479823415 105.15655260354227 296.7913030944093 104.86 298.57 C 104.37793892242158 296.8309813003827 104.02036734004909 295.05983234096755 103.78999999999999 293.27 C 103.55000000000001 291.5 103.38000000000001 289.72999999999996 103.29 287.95 C 103.2 286.17 103.17 284.38 103.22000000000001 282.59 C 103.25010365014928 280.7870189485025 103.41388620360344 278.9887533615976 103.71000000000001 277.21 Z" stroke-linecap="round" /></g><g transform="matrix(1 0 0 1 -146.29 76.34)"  ><path style="stroke: none; stroke-width: 1; stroke-dasharray: none; stroke-linecap: butt; stroke-dashoffset: 0; stroke-linejoin: miter; stroke-miterlimit: 4; fill: rgb(30,100,221); fill-rule: nonzero; opacity: 1;"  transform=" translate(-104.33, -287.89)" d="M 115 287.32 C 113.26552275116349 287.8045705887224 111.49726894879284 288.158889876154 109.71 288.38 C 107.92999999999999 288.62 106.16 288.8 104.38 288.89 C 102.6 288.97999999999996 100.82 289.01 99.03 288.96 C 97.22699520176585 288.9303381360935 95.42869690559074 288.7665526035422 93.65 288.46999999999997 C 95.38309831392007 287.97743453842577 97.15170967656768 287.6197002930509 98.94000000000001 287.4 C 100.72000000000001 287.15999999999997 102.49000000000001 286.97999999999996 104.27000000000001 286.89 C 106.05000000000001 286.8 107.83000000000001 286.78 109.62 286.83 C 111.42300479823416 286.85966186390647 113.22130309440925 287.0234473964577 115 287.32 Z" stroke-linecap="round" /></g><g transform="matrix(1 0 0 1 -74.51 -195.68)"  ><path style="stroke: none; stroke-width: 1; stroke-dasharray: none; stroke-linecap: butt; stroke-dashoffset: 0; stroke-linejoin: miter; stroke-miterlimit: 4; fill: rgb(124,54,209); fill-rule: nonzero; opacity: 1;"  transform=" translate(-176.1, -15.87)" d="M 175.25 0 C 175.8 2.62 176.16 5.25 176.45 7.89 C 176.73999999999998 10.53 176.94 13.16 177.1 15.809999999999999 C 177.26 18.459999999999997 177.32 21.099999999999998 177.31 23.75 C 177.3253218151905 26.42103788384339 177.20516748390574 29.091134134615938 176.95 31.749999999999996 C 176.39999999999998 29.13 176.04 26.5 175.75 23.86 C 175.46 21.22 175.26 18.59 175.1 15.94 C 174.94 13.29 174.88 10.649999999999999 174.9 7.999999999999999 C 174.88135449981544 5.3291313098472575 174.99817119415346 2.659035439263884 175.25 2.6645352591003757e-15 Z" stroke-linecap="round" /></g><g transform="matrix(1 0 0 1 -71.57 -183.83)"  ><path style="stroke: none; stroke-width: 1; stroke-dasharray: none; stroke-linecap: butt; stroke-dashoffset: 0; stroke-linejoin: miter; stroke-miterlimit: 4; fill: rgb(124,54,209); fill-rule: nonzero; opacity: 1;"  transform=" translate(-179.05, -27.72)" d="M 192 15 C 189.38 15.55 186.75 15.91 184.11 16.2 C 181.47000000000003 16.49 178.84 16.689999999999998 176.19000000000003 16.849999999999998 C 173.54000000000005 17.009999999999998 170.90000000000003 17.069999999999997 168.25000000000003 17.06 C 165.57896211615665 17.075321815190517 162.9088658653841 16.955167483905754 160.25000000000003 16.7 C 162.87000000000003 16.15 165.50000000000003 15.79 168.14000000000001 15.5 C 170.78 15.21 173.41000000000003 15.01 176.06 14.85 C 178.70999999999998 14.69 181.35 14.629999999999999 184 14.65 C 186.67096014681994 14.626243531468022 189.34131980888594 14.743071766683403 192.00000000000003 14.999999999999995 Z M 196.18 19.44 C 196.66361854642736 21.17809293469086 197.01791983720568 22.949599388582495 197.24 24.739999999999963 C 197.48000000000002 26.51 197.66 28.290000000000003 197.75 30.07 C 197.84 31.849999999999998 197.87 33.63 197.82 35.42 C 197.78989634985072 37.222981051497484 197.62611379639657 39.02124663840237 197.32999999999998 40.800000000000004 C 196.84314753864265 39.062130970413705 196.48550521045217 37.290631587787914 196.26 35.5 C 196.01999999999998 33.730000000000004 195.84 31.950000000000006 195.75 30.17000000000001 C 195.66 28.39000000000001 195.64 26.61000000000001 195.69 24.820000000000007 C 195.71966186390648 23.016995201765855 195.88344739645774 21.21869690559075 196.18 19.440000000000012 Z" stroke-linecap="round" /></g><g transform="matrix(1 0 0 1 -142.11 -36.75)"  ><path style="stroke: none; stroke-width: 1; stroke-dasharray: none; stroke-linecap: butt; stroke-dashoffset: 0; stroke-linejoin: miter; stroke-miterlimit: 4; fill: rgb(124,54,209); fill-rule: nonzero; opacity: 1;"  transform=" translate(-108.51, -174.8)" d="M 207.43 29.54 C 205.69121989890152 30.02305783787918 203.91999913457323 30.380643916715275 202.13 30.610000000000007 C 200.35999999999999 30.849999999999998 198.59 31.02 196.81 31.12 C 195.03 31.220000000000002 193.24 31.23 191.46 31.19 C 189.65346058018065 31.156497856327057 187.8518758921025 30.98937497246081 186.07000000000002 30.69 C 187.80809293469088 30.206381453572646 189.57959938858255 29.85208016279431 191.37 29.63 C 193.14000000000004 29.390000000000004 194.92000000000004 29.21 196.70000000000005 29.12 C 198.48000000000005 29.03 200.26000000000005 29.01 202.05000000000004 29.060000000000002 C 203.8524977414339 29.091264229399997 205.65043703334604 29.25167516994235 207.43000000000004 29.540000000000006 Z M 10.1 299.21 C 10.583025302461289 300.9454014424694 10.940614409289692 302.7132952509949 11.17 304.5 C 11.41 306.28 11.58 308.05 11.68 309.83 C 11.78 311.60999999999996 11.79 313.39 11.75 315.18 C 11.711984118134028 316.9829702241035 11.544890009216207 318.78090283605917 11.249999999999993 320.56 C 10.76542941127757 318.8255227511635 10.41111012384603 317.05726894879285 10.190000000000005 315.27 C 9.95 313.49 9.77 311.71999999999997 9.68 309.94 C 9.59 308.16 9.56 306.37 9.61 304.59 C 9.64960979167189 302.7875430808695 9.813330620112175 300.98995520942304 10.099999999999994 299.21 Z" stroke-linecap="round" /></g><g transform="matrix(1 0 0 1 -25.31 25.77)"  ><path style="stroke: none; stroke-width: 1; stroke-dasharray: none; stroke-linecap: butt; stroke-dashoffset: 0; stroke-linejoin: miter; stroke-miterlimit: 4; fill: rgb(124,54,209); fill-rule: nonzero; opacity: 1;"  transform=" translate(-225.31, -237.32)" d="M 21.36 309.31 C 19.621907065309138 309.79361854642735 17.850400611417466 310.1479198372057 16.06 310.37 C 14.29 310.62 12.509999999999998 310.79 10.729999999999999 310.88 C 8.95 310.96999999999997 7.169999999999998 311 5.379999999999999 310.95 C 3.5769952017658486 310.9203381360935 1.7786969055907313 310.7565526035423 -8.881784197001252e-15 310.46 C 1.7390186996173074 309.9779389224216 3.510167659032434 309.6203673400491 5.300000000000003 309.39 C 7.0699999999999985 309.15 8.84 308.97999999999996 10.62 308.89 C 12.399999999999999 308.8 14.19 308.77 15.98 308.82 C 17.782955441951454 308.8505789638087 19.58118595757363 309.0143583230382 21.35999999999999 309.31 Z M 448.55 163.66 C 449.08646738463716 166.26785152995234 449.4903195079857 168.9012343838532 449.76 171.54999999999993 C 450.06 174.17999999999998 450.24 176.82 450.40999999999997 179.46999999999997 C 450.5799999999999 182.11999999999995 450.63 184.75999999999996 450.60999999999996 187.40999999999997 C 450.6286455001845 190.08086869015273 450.5118288058465 192.75096456073607 450.25999999999993 195.40999999999997 C 449.721947845085 192.80285750245466 449.32139456672985 190.16921969726926 449.05999999999995 187.51999999999998 C 448.74999999999994 184.89 448.56999999999994 182.24999999999997 448.40999999999997 179.6 C 448.25 176.95000000000002 448.18999999999994 174.31 448.2 171.66 C 448.21000000000004 169.01 448.28 166.32999999999998 448.55 163.66 Z" stroke-linecap="round" /></g><g transform="matrix(1 0 0 1 198.78 -48.52)"  ><path style="stroke: none; stroke-width: 1; stroke-dasharray: none; stroke-linecap: butt; stroke-dashoffset: 0; stroke-linejoin: miter; stroke-miterlimit: 4; fill: rgb(124,54,209); fill-rule: nonzero; opacity: 1;"  transform=" translate(-449.39, -163.03)" d="M 465.27 178.67 C 462.65 179.22 460.01 179.57999999999998 457.38 179.86999999999998 C 454.75 180.15999999999997 452.1 180.35999999999999 449.46 180.51999999999998 C 446.81999999999994 180.67999999999998 444.16999999999996 180.73999999999998 441.52 180.73 C 438.8489567252583 180.74559695251656 436.1788465221764 180.62544199337788 433.52 180.36999999999998 C 436.14 179.81999999999996 438.77 179.45999999999998 441.40999999999997 179.17 C 444.04999999999995 178.88 446.67999999999995 178.67999999999998 449.32 178.51999999999998 C 451.96000000000004 178.35999999999999 454.61 178.29999999999998 457.27 178.32 C 459.9409601468199 178.296243531468 462.61131980888587 178.41307176668337 465.2699999999999 178.66999999999996 Z M 437.53 145.33 C 438.01302530246124 147.06540144246947 438.37061440928966 148.83329525099492 438.59999999999997 150.62 C 438.84 152.39000000000001 439.01 154.17000000000002 439.10999999999996 155.95000000000002 C 439.2099999999999 157.73000000000002 439.21999999999997 159.51000000000002 439.16999999999996 161.3 C 439.1403381360935 163.10300479823417 438.97655260354225 164.90130309440926 438.67999999999995 166.68 C 438.19640112392767 164.94529014561945 437.8420964371684 163.17710920886793 437.61999999999995 161.39000000000001 C 437.37999999999994 159.61 437.19999999999993 157.84 437.10999999999996 156.06 C 437.02 154.28 436.98999999999995 152.49 437.03999999999996 150.71 C 437.0796097916719 148.90754308086954 437.24333062011215 147.1099552094231 437.53 145.33 Z" stroke-linecap="round" /></g><g transform="matrix(1 0 0 1 187.5 -55.55)"  ><path style="stroke: none; stroke-width: 1; stroke-dasharray: none; stroke-linecap: butt; stroke-dashoffset: 0; stroke-linejoin: miter; stroke-miterlimit: 4; fill: rgb(124,54,209); fill-rule: nonzero; opacity: 1;"  transform=" translate(-438.11, -156)" d="M 448.79 155.43 C 447.05190706530914 155.91361854642736 445.28040061141746 156.2679198372057 443.49 156.49 C 441.72 156.73000000000002 439.94 156.91 438.16 157 C 436.38000000000005 157.09 434.6 157.12 432.81 157.07 C 431.00699520176585 157.0403381360935 429.2086969055907 156.87655260354225 427.43 156.57999999999998 C 429.1678690295863 156.09314753864265 430.93936841221205 155.73550521045217 432.72999999999996 155.51 C 434.5 155.26999999999998 436.27000000000004 155.1 438.05 155.01 C 439.83 154.92 441.62 154.89 443.41 154.94 C 445.21295544195146 154.9705789638087 447.0111859575737 155.1343583230382 448.79 155.43 Z" stroke-linecap="round" /></g><g transform="matrix(1 0 0 1 -11.15 47.47)"  ><path style="stroke: none; stroke-width: 1; stroke-dasharray: none; stroke-linecap: butt; stroke-dashoffset: 0; stroke-linejoin: miter; stroke-miterlimit: 4; fill: rgb(146,65,22); fill-rule: nonzero; opacity: 1;"  transform=" translate(-239.47, -259.02)" d="M 245.69 203.17 L 104.28 256.58 L 221.53 314.88 L 374.65 256.58 L 245.68999999999997 203.17 z" stroke-linecap="round" /></g><g transform="matrix(1 0 0 1 47.47 47.47)"  ><path style="stroke: none; stroke-width: 1; stroke-dasharray: none; stroke-linecap: butt; stroke-dashoffset: 0; stroke-linejoin: miter; stroke-miterlimit: 4; fill: rgb(146,65,22); fill-rule: nonzero; opacity: 1;"  transform=" translate(-298.09, -259.02)" d="M 245.69 203.17 L 221.53 314.88 L 374.65 256.58 L 245.68999999999997 203.17 z" stroke-linecap="round" /></g><g transform="matrix(1 0 0 1 -9.01 11.99)"  ><path style="stroke: none; stroke-width: 1; stroke-dasharray: none; stroke-linecap: butt; stroke-dashoffset: 0; stroke-linejoin: miter; stroke-miterlimit: 4; fill: rgb(226,119,61); fill-rule: nonzero; opacity: 1;"  transform=" translate(-241.61, -223.54)" d="M 245.69 203.29 L 374.65 256.58 L 416.38 257.88 L 288.88 200.57999999999998 L 245.69 203.29 z M 66.84 238.93 L 206.69 189.20000000000002 L 245.69 203.17000000000002 L 104.28 256.58000000000004 L 66.84 238.93000000000004 z" stroke-linecap="round" /></g><g transform="matrix(1 0 0 1 -29.3 26.77)"  ><path style="stroke: none; stroke-width: 1; stroke-dasharray: none; stroke-linecap: butt; stroke-dashoffset: 0; stroke-linejoin: miter; stroke-miterlimit: 4; fill: rgb(30,100,221); fill-rule: nonzero; opacity: 1;"  transform=" translate(-221.32, -238.32)" d="M 279.87 198.9 C 279.41335038427826 204.0538517340734 278.18637210124126 209.1100809224127 276.23 213.9 C 273.83000000000004 219.70000000000002 271.43 222.32 270.31 228.01 C 269.4966418013442 231.60456376653016 269.4966418013442 235.3354362334698 270.31 238.92999999999998 C 271.12 242.26 272.63 245.05999999999997 277.6 251.21999999999997 C 283.3 258.29999999999995 285.24 259.48999999999995 288.98 263.96999999999997 C 292.58000000000004 268.29999999999995 295.22 273.13 300.35 282.63 C 307.03000000000003 294.98 310.35 301.15999999999997 310.82000000000005 303.57 C 314.19000000000005 321.44 291.18000000000006 339.86 287.61000000000007 342.71 C 259.6600000000001 365.08 219.08000000000007 365.82 189.29000000000008 354.09 C 176.900769932421 349.5077807724021 165.7009833817552 342.19733114412196 156.52000000000004 332.7 C 138.13000000000005 313.38 134.43000000000006 290.83 132.85000000000008 280.34999999999997 C 131.63000000000008 272.18999999999994 127.33000000000008 240.63999999999996 144.69000000000008 211.16999999999996 C 162.32000000000008 181.23999999999995 184.8400000000001 183.07999999999996 192.48000000000008 156.08999999999997 C 198.30000000000007 135.53999999999996 190.35000000000008 116.39999999999998 194.75000000000009 115.08999999999997 C 199.41000000000008 113.73999999999998 204.20000000000007 136.31999999999996 225.75000000000009 147.85999999999999 C 232.45000000000007 151.45 234.3000000000001 150.49999999999997 243.8400000000001 155.64999999999998 C 256.6500000000001 162.56999999999996 259.2500000000001 167.48999999999998 268.0800000000001 173.34999999999997 C 288.4800000000001 186.87999999999997 307.0800000000001 182.13999999999996 308.0800000000001 187.90999999999997 C 308.6700000000001 191.08999999999997 303.8300000000001 196.73999999999998 277.1300000000001 207.47999999999996 Z" stroke-linecap="round" /></g><g transform="matrix(1 0 0 1 -87.71 128.29)"  ><path style="stroke: none; stroke-width: 1; stroke-dasharray: none; stroke-linecap: butt; stroke-dashoffset: 0; stroke-linejoin: miter; stroke-miterlimit: 4; fill: rgb(226,119,61); fill-rule: nonzero; opacity: 1;"  transform=" translate(-162.91, -339.84)" d="M 221.53 314.88 L 218.81 423.1 L 104.28 360.36 L 104.28 256.58 L 221.53 314.88 z" stroke-linecap="round" /></g><g transform="matrix(1 0 0 1 46.12 128.29)"  ><path style="stroke: none; stroke-width: 1; stroke-dasharray: none; stroke-linecap: butt; stroke-dashoffset: 0; stroke-linejoin: miter; stroke-miterlimit: 4; fill: rgb(233,150,105); fill-rule: nonzero; opacity: 1;"  transform=" translate(-296.73, -339.84)" d="M 221.53 314.88 L 218.81 423.1 L 368.40999999999997 372.8 L 374.65 256.58000000000004 L 221.52999999999997 314.88000000000005 z" stroke-linecap="round" /></g><g transform="matrix(1 0 0 1 74.79 40.54)"  ><path style="stroke: none; stroke-width: 1; stroke-dasharray: none; stroke-linecap: butt; stroke-dashoffset: 0; stroke-linejoin: miter; stroke-miterlimit: 4; fill: rgb(30,100,221); fill-rule: nonzero; opacity: 1;"  transform=" translate(-325.4, -252.09)" d="M 291.25 286.29 C 290.43 278.89000000000004 297.05 276.48 304.91 263.08000000000004 C 310.48 253.57000000000005 313.20000000000005 244.45000000000005 316.74 232.58000000000004 C 321 218.30000000000004 320.38 214.69000000000005 324.93 210.28000000000003 C 330.68 204.70000000000002 340.93 201.46000000000004 348.6 205.28000000000003 C 358.28000000000003 210.10000000000002 359.13 223.93000000000004 359.53000000000003 230.28000000000003 C 361.03000000000003 254.77000000000004 344.40000000000003 273.02000000000004 338.13000000000005 279.90000000000003 C 330.76000000000005 287.98 316.13000000000005 304.00000000000006 303.13000000000005 299.90000000000003 C 297.27000000000004 298.13000000000005 291.93000000000006 292.40000000000003 291.25000000000006 286.29 Z" stroke-linecap="round" /></g><g transform="matrix(1 0 0 1 -30.49 -39.98)"  ><path style="stroke: none; stroke-width: 1; stroke-dasharray: none; stroke-linecap: butt; stroke-dashoffset: 0; stroke-linejoin: miter; stroke-miterlimit: 4; fill: rgb(255,255,255); fill-rule: nonzero; opacity: 1;"  transform=" translate(-220.13, -171.57)" d="M 209.91 159.13 L 231.64 167.62 C 231.64 167.62 228.17999999999998 187.14000000000001 216.26 183.57 C 204.34 179.99999999999997 209.91 159.13 209.91 159.13 Z" stroke-linecap="round" /></g><g transform="matrix(1 0 0 1 -30.49 -39.98)"  ><path style="stroke: rgb(86,93,109); stroke-width: 1; stroke-dasharray: none; stroke-linecap: round; stroke-dashoffset: 0; stroke-linejoin: round; stroke-miterlimit: 4; fill: none; fill-rule: nonzero; opacity: 1;"  transform=" translate(-220.13, -171.57)" d="M 209.91 159.13 L 231.64 167.62 C 231.64 167.62 228.17999999999998 187.14000000000001 216.26 183.57 C 204.34 179.99999999999997 209.91 159.13 209.91 159.13 Z" stroke-linecap="round" /></g><g transform="matrix(1 0 0 1 -32.41 -38.08)"  ><path style="stroke: none; stroke-width: 1; stroke-dasharray: none; stroke-linecap: butt; stroke-dashoffset: 0; stroke-linejoin: miter; stroke-miterlimit: 4; fill: rgb(86,93,109); fill-rule: nonzero; opacity: 1;"  transform=" translate(-218.21, -173.47)" d="M 220.77 163.37 C 220.77 163.37 211.77 178.37 216.26000000000002 183.57 C 216.26000000000002 183.57 223.57000000000002 177.93 220.77 163.37 Z" stroke-linecap="round" /></g><g transform="matrix(1 0 0 1 -6.04 -28.1)"  ><path style="stroke: none; stroke-width: 1; stroke-dasharray: none; stroke-linecap: butt; stroke-dashoffset: 0; stroke-linejoin: miter; stroke-miterlimit: 4; fill: rgb(255,255,255); fill-rule: nonzero; opacity: 1;"  transform=" translate(-244.58, -183.45)" d="M 239.54 171 L 255.54 185.32 C 255.54 185.32 246.26999999999998 201.06 237.13 194.14 C 227.99 187.21999999999997 239.54 171 239.54 171 Z" stroke-linecap="round" /></g><g transform="matrix(1 0 0 1 -6.04 -28.1)"  ><path style="stroke: rgb(86,93,109); stroke-width: 1; stroke-dasharray: none; stroke-linecap: round; stroke-dashoffset: 0; stroke-linejoin: round; stroke-miterlimit: 4; fill: none; fill-rule: nonzero; opacity: 1;"  transform=" translate(-244.58, -183.45)" d="M 239.54 171 L 255.54 185.32 C 255.54 185.32 246.26999999999998 201.06 237.13 194.14 C 227.99 187.21999999999997 239.54 171 239.54 171 Z" stroke-linecap="round" /></g><g transform="matrix(1 0 0 1 -8.39 -25.41)"  ><path style="stroke: none; stroke-width: 1; stroke-dasharray: none; stroke-linecap: butt; stroke-dashoffset: 0; stroke-linejoin: miter; stroke-miterlimit: 4; fill: rgb(86,93,109); fill-rule: nonzero; opacity: 1;"  transform=" translate(-242.23, -186.14)" d="M 247.55 178.14 C 247.55 178.14 235.01000000000002 188.14 237.15 194.14 C 237.15 194.11999999999998 245.28 191.60999999999999 247.55 178.14 Z" stroke-linecap="round" /></g><g transform="matrix(1 0 0 1 -31.77 -8.05)"  ><path style="stroke: none; stroke-width: 1; stroke-dasharray: none; stroke-linecap: butt; stroke-dashoffset: 0; stroke-linejoin: miter; stroke-miterlimit: 4; fill: rgb(24,81,178); fill-rule: nonzero; opacity: 1;"  transform=" translate(-218.84, -203.5)" d="M 206.39 183.39 C 205.5360130420533 182.32502538782316 204.6069779964243 181.32246958318757 203.60999999999999 180.39 C 202.63323479327187 179.43635775271787 201.5978878490176 178.54462344911823 200.50999999999996 177.71999999999997 C 198.35601472210107 176.05434989589455 196.00496074924624 174.6605107548449 193.50999999999996 173.57 C 191.028247873213 172.46098974919087 188.4182236828964 171.66488198457694 185.73999999999998 171.2 C 183.03579648035316 170.7300984139215 180.29462037305868 170.50585079586443 177.54999999999995 170.53 Q 178.54999999999998 170.41 179.61999999999998 170.32 C 180.3067344093496 170.2335734358825 180.9978821900891 170.18682914153297 181.68999999999997 170.18 C 183.08415367315072 170.1766093573545 184.4770651763392 170.26345755659406 185.85999999999993 170.44 C 188.623288818669 170.77269648099394 191.32041877098845 171.52115004276257 193.85999999999996 172.66 C 196.42655795508907 173.7845261535291 198.80977695410462 175.28794294781616 200.92999999999995 177.12 C 203.08919429913283 178.88854887811573 204.93502297720735 181.00820928315736 206.38999999999996 183.39 Z M 199.71 186.42 C 197.39698973521217 185.09004676369437 194.9326950927217 184.04255367315346 192.37 183.29999999999998 C 189.8313619919878 182.539172948977 187.2207809926532 182.04319607105467 184.58 181.82 C 183.92000000000002 181.72 183.25 181.75 182.58 181.7 C 181.91381165271258 181.66428560031872 181.24618834728744 181.66428560031872 180.58 181.7 L 178.58 181.7 L 176.58 181.89 C 173.92275119727856 182.19884816444647 171.28987769589853 182.69000603843486 168.7 183.35999999999999 C 169.96 182.88 171.22000000000003 182.35999999999999 172.51000000000002 181.99999999999997 C 173.82695284119603 181.63923488238933 175.1621749803242 181.34882406712896 176.51 181.12999999999997 C 179.1912159547164 180.67202112804213 181.9198835303605 180.55776657438216 184.63000000000002 180.78999999999996 C 187.36265609845503 181.01476141010002 190.0530821922475 181.60329211811714 192.63000000000002 182.53999999999996 C 193.90279921785788 183.00517362975629 195.14522905935277 183.54957165170163 196.35000000000002 184.16999999999996 C 197.53702366022787 184.8147222545819 198.6618217523203 185.56793526267953 199.71000000000004 186.41999999999996 Z M 196.07 191 C 194.92 191 193.76999999999998 190.95 192.62 191 C 191.47000000000003 191.05 190.33 191 189.19 191.1 C 186.9102101631124 191.21755700299732 184.63949046151183 191.47134332258796 182.39 191.85999999999999 C 180.15479196605557 192.23783146262656 177.96128291598808 192.8305812364616 175.83999999999997 193.63 C 175.29999999999998 193.82 174.83999999999997 194.09 174.28999999999996 194.32 C 174.02999999999997 194.44 173.76999999999995 194.54999999999998 173.51999999999995 194.69 L 172.78999999999996 195.13 C 171.79889183769689 195.7166664521445 170.85890883846412 196.38569349786178 169.97999999999996 197.13 C 170.739988544008 196.25193295616504 171.5914721449526 195.45743841512618 172.51999999999995 194.76 L 173.22999999999996 194.23999999999998 C 173.46999999999997 194.07999999999998 173.73999999999995 193.95 173.98999999999995 193.79999999999998 C 174.49999999999994 193.52999999999997 174.98999999999995 193.2 175.52999999999994 192.95999999999998 C 177.66212355758276 191.99065320950515 179.9108347252316 191.30158625977717 182.21999999999994 190.90999999999997 C 186.81013843566151 190.152590449337 191.4973423061487 190.20335439017262 196.0699999999999 191.05999999999997 Z M 241.21 199.61 C 243.97918135057873 199.29971626951863 246.78067669203625 199.45178778986312 249.5 200.06 C 252.24524071125163 200.6236163343789 254.88879879333044 201.60146307392336 257.34 202.96 C 259.80712129261036 204.2739144523634 262.05688843639496 205.96039656914348 264.01 207.96 C 264.9914405913628 208.9458917544678 265.90361139308095 209.99839652568102 266.74 211.11 C 267.16539096321645 211.65973702177553 267.5529496422976 212.2377340173018 267.90000000000003 212.84 C 268.27000000000004 213.42000000000002 268.64000000000004 214.01 268.99 214.6 C 267.3372333350285 212.41089323008967 265.49332402642233 210.37288820478815 263.48 208.51 C 261.4748934838778 206.67608311382116 259.25546363654706 205.09125574931267 256.87 203.79 C 254.48490930817084 202.4862375568436 251.94945728736812 201.47877317771668 249.32 200.79 C 248.00597424783902 200.42486207807488 246.66990436136308 200.14428740191494 245.32 199.95 C 243.9595179000484 199.7416999669903 242.58621694186118 199.62809356169015 241.20999999999998 199.60999999999999 Z M 242.87 206.76 C 244.18118466562726 207.08605832397524 245.4598336683975 207.53124240085597 246.69 208.09 C 247.91546369586354 208.68512471164928 249.10425116313647 209.35298283933068 250.24999999999997 210.09 C 252.54361950955519 211.56097852037 254.63473152113065 213.32598463946505 256.47 215.33999999999997 C 258.302833024852 217.3515296122962 259.87519077095374 219.58575589682104 261.15000000000003 221.99 C 261.78452738803594 223.18563783801326 262.3553258184971 224.4140227643858 262.86 225.67000000000002 C 263.34000000000003 226.93 263.72 228.23000000000002 264.11 229.51000000000002 C 263.06095799354915 227.0515355512207 261.8482374552142 224.66618440970223 260.48 222.37000000000003 L 259.42 220.69000000000003 L 258.25 219.00000000000003 C 257.8720213885557 218.45499151187047 257.46475638131466 217.93088818287995 257.03 217.43000000000004 C 256.59 216.94000000000003 256.21 216.43000000000004 255.72999999999996 215.93000000000004 C 253.94672093696386 213.9715398904477 251.96624751361406 212.20218292339405 249.81999999999996 210.65000000000003 C 247.6651912681219 209.0832508179444 245.33224556602892 207.77747257605347 242.86999999999995 206.76000000000005 Z M 241.47 212.42 C 244.93452230380433 215.5262888204399 247.82823802492982 219.2153533070209 250.02 223.32 C 251.11347508825722 225.39200292986996 251.93364701144864 227.59705531353214 252.46 229.88 C 252.6 230.44 252.64000000000001 231.03 252.73000000000002 231.60999999999999 C 252.73000000000002 231.89999999999998 252.83 232.19 252.85000000000002 232.48 L 252.85000000000002 233.35999999999999 C 252.86596808523922 234.52189471704355 252.75531537441395 235.68207162448402 252.52 236.82 C 252.56058317811866 235.67449979155884 252.5104265253768 234.52758433219495 252.37 233.39 L 252.28 232.54999999999998 C 252.28 232.26999999999998 252.16 231.98999999999998 252.1 231.70999999999998 C 251.96 231.15999999999997 251.88 230.59999999999997 251.7 230.05999999999997 C 251.04554469577357 227.88800433019628 250.18148050317396 225.78477831100037 249.11999999999998 223.77999999999997 C 248.05884964533485 221.76258817226633 246.88015445188535 219.80922644941097 245.58999999999997 217.92999999999998 C 244.95 216.92999999999998 244.27999999999997 216.05999999999997 243.58999999999997 215.14 C 242.89999999999998 214.22 242.2 213.32 241.46999999999997 212.42 Z" stroke-linecap="round" /></g><g transform="matrix(1 0 0 1 -11.35 105.03)"  ><path style="stroke: none; stroke-width: 1; stroke-dasharray: none; stroke-linecap: butt; stroke-dashoffset: 0; stroke-linejoin: miter; stroke-miterlimit: 4; fill: rgb(146,65,22); fill-rule: nonzero; opacity: 1;"  transform=" translate(-239.26, -316.58)" d="M 221.34 322.63 L 260.95 369 L 371.26 323.12 L 374.25 264.38 L 221.53 314.88 L 221.34 322.63 z M 180.64 351.59 L 221.33999999999997 322.59999999999997 L 221.52999999999997 314.87999999999994 L 104.27999999999997 264.16999999999996 L 104.27999999999997 305.19999999999993 L 180.64 351.5899999999999 z" stroke-linecap="round" /></g><g transform="matrix(1 0 0 1 -2.35 -47.93)"  ><path style="stroke: none; stroke-width: 1; stroke-dasharray: none; stroke-linecap: butt; stroke-dashoffset: 0; stroke-linejoin: miter; stroke-miterlimit: 4; fill: rgb(188,209,246); fill-rule: nonzero; opacity: 1;"  transform=" translate(-248.26, -163.63)" d="M 199.94 143.33 L 199.24 127.61000000000001 L 208.66 141.3 C 208.66 141.3 204.24 138.16000000000003 199.94 143.33 Z M 281.59 191 L 297.28999999999996 190 L 283.74999999999994 199.64 C 283.74999999999994 199.64 286.81999999999994 195.17999999999998 281.5899999999999 191 Z" stroke-linecap="round" /></g><g transform="matrix(1 0 0 1 -10.47 97.37)"  ><path style="stroke: none; stroke-width: 1; stroke-dasharray: none; stroke-linecap: butt; stroke-dashoffset: 0; stroke-linejoin: miter; stroke-miterlimit: 4; fill: rgb(226,119,61); fill-rule: nonzero; opacity: 1;"  transform=" translate(-240.15, -308.92)" d="M 180.64 344 L 74.69 279.64 L 104.28 256.58 L 221.53 314.88 L 180.64 344 z M 405.6 301.19 L 261.16 361.27 L 221.53000000000003 314.88 L 374.65000000000003 256.58 L 405.6 301.19 z" stroke-linecap="round" /></g><g transform="matrix(1 0 0 1 -88.03 150.28)"  ><path style="stroke: none; stroke-width: 1; stroke-dasharray: none; stroke-linecap: butt; stroke-dashoffset: 0; stroke-linejoin: miter; stroke-miterlimit: 4; fill: rgb(146,65,22); fill-rule: nonzero; opacity: 1;"  transform=" translate(-162.58, -361.83)" d="M 104.28 312 C 105.85483061801541 310.4244666917607 107.56099736748646 308.98593394220666 109.37999999999997 307.7 C 111.16673648057309 306.3714811557952 113.06747555766005 305.2035974623034 115.06 304.21 C 113.48737310241717 305.78793025182256 111.78099269920813 307.2266431408027 109.96000000000001 308.51 C 108.16847436776085 309.8314307272419 106.26836533473234 310.9989272985922 104.28 312 Z M 104.28 320.53 C 106.93559870184625 318.17616236053374 109.71274120207616 315.963126930663 112.59999999999994 313.9 C 115.46058550645832 311.8024285728984 118.43151108377947 309.85964353244793 121.5 308.0799999999999 C 118.85235165886644 310.4391458000796 116.07824778071574 312.65242001333337 113.18999999999998 314.71 C 110.32599438862788 316.80762120425175 107.35173771605608 318.75040165704274 104.28 320.53 Z M 104.27 330.07 C 106.2 328.53 108.19 327.07 110.19999999999999 325.67 C 112.20999999999998 324.27000000000004 114.19999999999999 322.86 116.27999999999999 321.49 C 118.35999999999999 320.12 120.38999999999999 318.79 122.48999999999998 317.49 L 125.63999999999999 315.57 C 126.70999999999998 314.95 127.75999999999999 314.32 128.83999999999997 313.73 C 127.83999999999997 314.5 126.83999999999997 315.22 125.90999999999997 315.97 L 122.90999999999997 318.13000000000005 C 120.90999999999997 319.56000000000006 118.90999999999997 320.94000000000005 116.82999999999997 322.30000000000007 C 114.74999999999997 323.6600000000001 112.71999999999997 325.00000000000006 110.61999999999998 326.30000000000007 C 108.51999999999998 327.6000000000001 106.42999999999998 328.88000000000005 104.26999999999998 330.07000000000005 Z M 104.28 343.21 C 107.09 341.03 109.97 338.93 112.86 336.84 C 115.75 334.74999999999994 118.66 332.71999999999997 121.58 330.69 C 124.5 328.66 127.46 326.69 130.44 324.69 L 134.92 321.78 C 136.42999999999998 320.84 137.92 319.86999999999995 139.45 318.95 C 138.04999999999998 320.06 136.60999999999999 321.11 135.2 322.18 L 130.88 325.33 C 128 327.41999999999996 125.08 329.45 122.14999999999999 331.47999999999996 C 119.21999999999998 333.50999999999993 116.27 335.47999999999996 113.28999999999999 337.47999999999996 C 110.30999999999999 339.47999999999996 107.33 341.36999999999995 104.27999999999999 343.21 Z M 104.27 356.1 C 107.92 353.34000000000003 111.63 350.68 115.35 348.02000000000004 C 119.07 345.36000000000007 122.83999999999999 342.79 126.58999999999999 340.17 C 130.33999999999997 337.55 134.14 335.03000000000003 137.95 332.51 L 143.67999999999998 328.75 C 145.60999999999999 327.52 147.52999999999997 326.27 149.46999999999997 325.07 C 147.64999999999998 326.46 145.79999999999998 327.79 143.95999999999998 329.15 L 138.39 333.15 C 134.67 335.81 130.89999999999998 338.39 127.14999999999999 341.01 C 123.4 343.63 119.6 346.15 115.77999999999999 348.67 C 111.95999999999998 351.19000000000005 108.14999999999999 353.68 104.26999999999998 356.1 Z M 112.89 364.81 C 116.63 362 120.44 359.27 124.25 356.55 C 128.06 353.83000000000004 131.93 351.2 135.76 348.55 C 139.58999999999997 345.90000000000003 143.5 343.29 147.39999999999998 340.71000000000004 L 153.26999999999998 336.85 C 155.26999999999998 335.59000000000003 157.2 334.31 159.18999999999997 333.08000000000004 C 157.32999999999996 334.50000000000006 155.42999999999998 335.86 153.53999999999996 337.25000000000006 L 147.83999999999997 341.34000000000003 C 144.01999999999998 344.05 140.15999999999997 346.70000000000005 136.32999999999998 349.34000000000003 C 132.5 351.98 128.58999999999997 354.61 124.67999999999998 357.19000000000005 C 120.76999999999998 359.7700000000001 116.86999999999998 362.34000000000003 112.88999999999999 364.81000000000006 Z M 124.41 371.35 C 128.15 368.53000000000003 131.95 365.8 135.76999999999998 363.09000000000003 C 139.58999999999997 360.38000000000005 143.43999999999997 357.73 147.27999999999997 355.09000000000003 C 151.11999999999998 352.45000000000005 155.00999999999996 349.82000000000005 158.91999999999996 347.24 L 164.77999999999997 343.38 C 166.77999999999997 342.13 168.71999999999997 340.84 170.70999999999998 339.61 C 168.83999999999997 341.03000000000003 166.93999999999997 342.40000000000003 165.05999999999997 343.79 L 159.34999999999997 347.88 C 155.53999999999996 350.59 151.67999999999998 353.23 147.83999999999997 355.88 C 143.99999999999997 358.53 140.09999999999997 361.15 136.2 363.73 C 132.3 366.31000000000006 128.38 368.87 124.41 371.35 Z M 136 377.51 C 139.74 374.69 143.55 371.96 147.36 369.25 C 151.17000000000002 366.54 155.04000000000002 363.89 158.87 361.25 C 162.7 358.61 166.61 355.98 170.51 353.4 L 176.38 349.53999999999996 C 178.38 348.28 180.31 346.99999999999994 182.29999999999998 345.77 C 180.43999999999997 347.19 178.54 348.54999999999995 176.66 349.94 L 171 354 C 167.18 356.71 163.32 359.36 159.49 362 C 155.66000000000003 364.64 151.75 367.27 147.84 369.85 C 143.93 372.43000000000006 140 375 136 377.51 Z M 147.56 383.37 C 153.56 379 159.61 374.73 165.67000000000002 370.47 L 183.94000000000003 357.79 L 202.34000000000003 345.3 L 211.59000000000003 339.13 L 220.89000000000004 333.04 L 211.89000000000004 339.53000000000003 L 202.81000000000003 345.94000000000005 L 184.54000000000002 358.61000000000007 L 166.14000000000001 371.1000000000001 C 160.00000000000003 375.2300000000001 153.79000000000002 379.3400000000001 147.56 383.37000000000006 Z M 220.74 346 C 215.58 349.79 210.36 353.49 205.13 357.18 C 199.89999999999998 360.87 194.60999999999999 364.49 189.35999999999999 368.18 C 184.10999999999999 371.87 178.77999999999997 375.40000000000003 173.45999999999998 378.96 L 165.45999999999998 384.27 C 162.77999999999997 386.02 160.10999999999999 387.78999999999996 157.40999999999997 389.51 C 159.97999999999996 387.59999999999997 162.59999999999997 385.75 165.18999999999997 383.87 L 173.01999999999998 378.32 C 178.26 374.63 183.54 371.01 188.79 367.32 C 194.04 363.63 199.37 360.09999999999997 204.69 356.55 C 210.01 353.00000000000006 215.35 349.45 220.74 346 Z M 220.4 359.8 C 216.18 362.95 211.9 366 207.62 369.04 C 203.34 372.08000000000004 198.99 375.04 194.68 378.04 C 190.37 381.04 186 384 181.62 386.88 L 175 391.23 C 172.78 392.64000000000004 170.59 394.09000000000003 168.36 395.48 C 170.46 393.90000000000003 172.60000000000002 392.38 174.72000000000003 390.82 L 181.14000000000001 386.25 C 185.43 383.25 189.76000000000002 380.25 194.08 377.25 C 198.4 374.25 202.76000000000002 371.33 207.14000000000001 368.43 C 211.52 365.53000000000003 216 362.61 220.4 359.8 Z M 220 374.68 C 216.8 377.13 213.54 379.48 210.28 381.82 C 207.02 384.15999999999997 203.69 386.44 200.4 388.75 C 197.11 391.06 193.75 393.27 190.4 395.48 L 185.4 398.77000000000004 C 183.69 399.84000000000003 182.01000000000002 400.94000000000005 180.29 401.98 C 181.88 400.75 183.51 399.57 185.12 398.37 L 190.01 394.84000000000003 C 193.28 392.50000000000006 196.59 390.23 199.89 387.92 C 203.18999999999997 385.61 206.52999999999997 383.40000000000003 209.89 381.19 C 213.25 378.97999999999996 216.58999999999997 376.79 220 374.68 Z M 219.67 389 C 217.45 390.77 215.16 392.46 212.86999999999998 394.13 C 210.57999999999996 395.8 208.25999999999996 397.42 205.92999999999998 399.03 C 203.6 400.63999999999993 201.23999999999998 402.21999999999997 198.84999999999997 403.75 L 195.26999999999995 406 C 194.04999999999995 406.73 192.85999999999996 407.49 191.61999999999995 408.2 C 192.72999999999996 407.31 193.86999999999995 406.46999999999997 194.98999999999995 405.59999999999997 L 198.41999999999996 403.08 C 200.69999999999996 401.4 203.02999999999997 399.78 205.35999999999996 398.16999999999996 C 207.68999999999994 396.55999999999995 210.04999999999995 394.97999999999996 212.43999999999997 393.44999999999993 C 214.82999999999998 391.9199999999999 217.20999999999998 390.38999999999993 219.66999999999996 388.99999999999994 Z M 219.31 403.1 C 214.22703105220336 407.40063265159495 208.72238845767347 411.17648913609594 202.88 414.37 C 205.40595565329664 412.20395451343376 208.05360331625215 410.1839963342559 210.80999999999995 408.32000000000005 C 213.5432219615913 406.4220087718959 216.38103729297444 404.6792562977994 219.30999999999995 403.1 Z M 219 414.75 C 218.07966588534495 415.811106668554 217.02006468152265 416.7428829652485 215.85 417.52 C 214.70504913298188 418.32867703067956 213.45739048858897 418.98109152397393 212.14 419.46 C 214.0157528671007 417.36245941564886 216.36862876976483 415.7470008877264 219 414.75 Z" stroke-linecap="round" /></g><g transform="matrix(1 0 0 1 -35.81 -6.45)"  ><path style="stroke: none; stroke-width: 1; stroke-dasharray: none; stroke-linecap: butt; stroke-dashoffset: 0; stroke-linejoin: miter; stroke-miterlimit: 4; fill: rgb(24,81,178); fill-rule: nonzero; opacity: 1;"  transform=" translate(-214.8, -205.1)" d="M 212.79 209.08 C 212.94707554182247 207.56248855028355 213.40246411039885 206.09097175779422 214.13 204.75 C 214.8106008420388 203.3935592902785 215.71684419566697 202.16269145176864 216.81 201.11 C 216.32583862018254 202.5230765678679 215.7271857613136 203.8942926133219 215.02 205.21 C 214.3437083461938 206.53748804291737 213.59938592936697 207.82920452413705 212.79000000000002 209.08 Z" stroke-linecap="round" /></g><g transform="matrix(1 0 0 1 -29.18 -16.64)"  ><path style="stroke: none; stroke-width: 1; stroke-dasharray: none; stroke-linecap: butt; stroke-dashoffset: 0; stroke-linejoin: miter; stroke-miterlimit: 4; fill: rgb(188,209,246); fill-rule: nonzero; opacity: 1;"  transform=" translate(-221.44, -194.91)" d="M 214.58 188.13 L 228.69 195.89 C 228.69 195.89 211.38 213.14999999999998 214.57999999999998 188.13 Z" stroke-linecap="round" /></g><g transform="matrix(1 0 0 1 87.48 -130.24)"  ><path style="stroke: rgb(30,100,221); stroke-width: 1; stroke-dasharray: none; stroke-linecap: round; stroke-dashoffset: 0; stroke-linejoin: round; stroke-miterlimit: 4; fill: none; fill-rule: nonzero; opacity: 1;"  transform=" translate(-338.1, -81.31)" d="M 381 118.73 L 292.08 99.58000000000001 C 288.6447746953454 98.8404744373906 286.19137605905394 95.80392502167496 286.19 92.29 L 286.19 51.190000000000005 C 286.19 47.0699557662623 289.5299557662623 43.73000000000002 293.65 43.730000000000004 L 382.52 43.730000000000004 C 384.50197799278243 43.72468636696943 386.4046002694855 44.50830201042053 387.8079502655349 45.90789973375321 C 389.21130026158426 47.3074974570859 390.0000071228453 49.20801488438507 390 51.190000000000005 L 390 111.44 C 390.000913078113 113.68840333983198 388.9863457527185 115.8169572818552 387.2391925890111 117.23215134445815 C 385.49203942530374 118.64734540706111 383.1992025861752 119.19778883830159 381 118.73 Z" stroke-linecap="round" /></g><g transform="matrix(1 0 0 1 53.49 -106.58)"  ><path style="stroke: rgb(30,100,221); stroke-width: 1; stroke-dasharray: none; stroke-linecap: round; stroke-dashoffset: 0; stroke-linejoin: round; stroke-miterlimit: 4; fill: none; fill-rule: nonzero; opacity: 1;"  transform=" translate(-304.11, -104.97)" d="M 294.51 100.1 L 298 109.85 L 313.71 104.24 L 294.51 100.1 z" stroke-linecap="round" /></g><g transform="matrix(1 0 0 1 67.16 -132.44)"  ><path style="stroke: none; stroke-width: 1; stroke-dasharray: none; stroke-linecap: butt; stroke-dashoffset: 0; stroke-linejoin: miter; stroke-miterlimit: 4; fill: rgb(30,100,221); fill-rule: nonzero; opacity: 1;"  transform=" translate(-317.78, -79.11)" d="M 313.06 104.47 L 313.71 104.24 L 294.51 100.1 L 295.75 103.55 L 313.06 104.47 z M 338.13 92.67 L 335.28 92.67 L 331.48999999999995 55.79 L 341.04999999999995 53.74 L 338.12999999999994 92.67 z" stroke-linecap="round" /></g><g transform="matrix(1 0 0 1 85.93 -113.69)"  ><circle style="stroke: none; stroke-width: 1; stroke-dasharray: none; stroke-linecap: butt; stroke-dashoffset: 0; stroke-linejoin: miter; stroke-miterlimit: 4; fill: rgb(30,100,221); fill-rule: nonzero; opacity: 1;"  cx="0" cy="0" r="2.24" /></g><g transform="matrix(1 0 0 1 -38.76 40.63)"  ><path style="stroke: none; stroke-width: 1; stroke-dasharray: none; stroke-linecap: butt; stroke-dashoffset: 0; stroke-linejoin: miter; stroke-miterlimit: 4; fill: rgb(24,81,178); fill-rule: nonzero; opacity: 1;"  transform=" translate(-211.85, -252.18)" d="M 162.9 262.15 C 160.6804395079137 260.95236599775757 158.59526020460154 259.5209004631687 156.68 257.88 C 154.80778459279662 256.1853916297414 153.13071981425142 254.2869543004282 151.68 252.22 C 148.8043014112542 248.01952002029012 146.76698860718582 243.30314087887186 145.68 238.32999999999998 C 144.60277298135426 233.37957546425008 144.15921772813988 228.31229272298248 144.36 223.24999999999997 C 144.5283889275998 218.21163565778696 145.2391576765784 213.20608026993287 146.48000000000002 208.31999999999996 C 146.06000000000003 210.79999999999995 145.71 213.31999999999996 145.48000000000002 215.77999999999997 C 145.25000000000003 218.23999999999998 145.11 220.77999999999997 145.11 223.26999999999998 C 145.02794915077087 228.2560689820592 145.5381871304268 233.23424611251798 146.63000000000002 238.1 C 147.6622245392409 242.9714904803356 149.58074228219482 247.61186290101386 152.29000000000002 251.79 C 153.6571592933043 253.8665155545793 155.2465416351013 255.78785749940982 157.03000000000003 257.52 C 158.8359226388368 259.2454037299718 160.80138614685802 260.79567562812144 162.90000000000006 262.15 Z M 134 238.49 C 134.13 241.95000000000002 134.35 245.4 134.78 248.81 C 135.21470275175878 252.21847593897346 135.88294112598197 255.59307972880066 136.77999999999997 258.91 C 137.6541384314632 262.2229465680617 138.83594244408226 265.4469614806741 140.31 268.54 C 141.8003551843517 271.63915817008876 143.64970098219683 274.5524651619755 145.82 277.22 C 145.22 276.6 144.63 275.97 144.04 275.33000000000004 C 143.45 274.69000000000005 142.95 273.98 142.4 273.33000000000004 C 141.85000000000002 272.68000000000006 141.4 271.89000000000004 140.94 271.16 C 140.45965244085846 270.4344117176409 140.019005491059 269.6833089623009 139.62 268.91 C 137.9798878431549 265.82754935776194 136.7014108687041 262.5659230607378 135.81 259.19 C 134.91918281507182 255.82282983793976 134.33348288697314 252.3822611174514 134.06 248.91 C 133.75896603964745 245.44397116476463 133.73890055705482 241.95926568784554 134 238.49000000000004 Z M 273.24 245.39 C 274.14174299256445 247.55666545263358 274.81212801910146 249.81251106693074 275.24 252.11999999999998 C 275.61309073915277 254.43362078579727 275.76377845421035 256.7776519089151 275.69 259.12 C 275.42631437218756 263.8302952015805 274.4136132610912 268.46846629040175 272.69 272.86 C 270.96233261528937 277.2247305066011 268.7661451128743 281.3891043661423 266.14 285.28000000000003 C 263.5273808613342 289.173666741773 260.51063136855885 292.78035835758004 257.14 296.04 Q 259.45 293.42 261.51 290.6 C 262.90999999999997 288.75 264.21999999999997 286.83000000000004 265.45 284.86 C 267.9475325180174 280.9597331842268 270.0480219837116 276.819055385825 271.72 272.5 C 272.5543007658557 270.34693392831775 273.24907198000204 268.14237142189194 273.79999999999995 265.9 C 274.29347964575544 263.64967236889026 274.62764193003756 261.36734396724336 274.79999999999995 259.07 C 275.15134482713756 254.45234926123192 274.62195342859115 249.80999392013234 273.23999999999995 245.39 Z M 286.42 290.17 C 287.11781590139833 287.81424264458474 287.6952300974652 285.4244821568166 288.15000000000003 283.01 C 288.59503316978225 280.6103342777707 288.85247843534734 278.1796497574356 288.92 275.74 C 288.9836913150198 273.3041156089407 288.8263806070985 270.86747315432916 288.45 268.46000000000004 C 288.26109496182465 267.25059485660034 288.00739653445765 266.0522036010113 287.69 264.87000000000006 C 287.53 264.2800000000001 287.38 263.69000000000005 287.2 263.1000000000001 C 287.02 262.5100000000001 286.81 261.93000000000006 286.63 261.3400000000001 C 286.92 261.8900000000001 287.19 262.4500000000001 287.45 263.0100000000001 C 287.71 263.5700000000001 287.92 264.1600000000001 288.15999999999997 264.7400000000001 C 288.56409203373255 265.9158201964331 288.8980129388344 267.114596245749 289.15999999999997 268.3300000000001 C 289.7046351329703 270.7710199254544 289.94645663964246 273.26984216106706 289.88 275.7700000000001 C 289.81298525938837 278.26868368711024 289.4777283238852 280.7529375791887 288.88 283.1800000000001 C 288.2983934532465 285.58716575789845 287.4741770203806 287.9291465976272 286.42 290.17000000000013 Z" stroke-linecap="round" /></g></g></g></svg>